<svg width="103" height="19" viewBox="0 0 103 19" fill="none" xmlns="http://www.w3.org/2000/svg">
<path d="M3.8 9.648V7.872H6.512C6.976 7.872 7.368 7.8 7.688 7.656C8.024 7.512 8.28 7.312 8.456 7.056C8.632 6.784 8.72 6.456 8.72 6.072C8.72 5.496 8.528 5.064 8.144 4.776C7.76 4.488 7.216 4.344 6.512 4.344H4.832V14.856H6.896C7.424 14.856 7.896 14.792 8.312 14.664C8.728 14.52 9.056 14.296 9.296 13.992C9.552 13.672 9.68 13.24 9.68 12.696C9.68 12.344 9.608 12.04 9.464 11.784C9.32 11.528 9.12 11.32 8.864 11.16C8.608 11 8.312 10.888 7.976 10.824C7.656 10.744 7.296 10.704 6.896 10.704H3.8V8.496H7.352C8.168 8.496 8.96 8.584 9.728 8.76C10.496 8.936 11.192 9.224 11.816 9.624C12.44 10.008 12.936 10.504 13.304 11.112C13.688 11.704 13.88 12.424 13.88 13.272C13.88 14.392 13.608 15.296 13.064 15.984C12.536 16.672 11.784 17.184 10.808 17.52C9.832 17.84 8.68 18 7.352 18H0.776V1.2H6.944C8.112 1.2 9.136 1.36 10.016 1.68C10.912 1.984 11.616 2.456 12.128 3.096C12.656 3.72 12.92 4.512 12.92 5.472C12.92 6.352 12.656 7.104 12.128 7.728C11.616 8.352 10.912 8.832 10.016 9.168C9.136 9.488 8.112 9.648 6.944 9.648H3.8ZM16.7135 1.2H20.7695V14.52H27.5135V18H16.7135V1.2ZM32.0026 9.6C32.0026 10.592 32.1946 11.472 32.5786 12.24C32.9786 12.992 33.5306 13.584 34.2346 14.016C34.9546 14.448 35.7946 14.664 36.7546 14.664C37.6986 14.664 38.5226 14.448 39.2266 14.016C39.9466 13.584 40.4986 12.992 40.8826 12.24C41.2826 11.472 41.4826 10.592 41.4826 9.6C41.4826 8.608 41.2906 7.736 40.9066 6.984C40.5226 6.216 39.9786 5.616 39.2746 5.184C38.5706 4.752 37.7306 4.536 36.7546 4.536C35.7946 4.536 34.9546 4.752 34.2346 5.184C33.5306 5.616 32.9786 6.216 32.5786 6.984C32.1946 7.736 32.0026 8.608 32.0026 9.6ZM27.7066 9.6C27.7066 8.304 27.9306 7.12 28.3786 6.048C28.8426 4.976 29.4826 4.048 30.2986 3.264C31.1146 2.48 32.0746 1.88 33.1786 1.464C34.2826 1.032 35.4746 0.816 36.7546 0.816C38.0506 0.816 39.2426 1.032 40.3306 1.464C41.4346 1.88 42.3946 2.48 43.2106 3.264C44.0266 4.048 44.6586 4.976 45.1066 6.048C45.5546 7.12 45.7786 8.304 45.7786 9.6C45.7786 10.896 45.5546 12.088 45.1066 13.176C44.6746 14.264 44.0506 15.208 43.2346 16.008C42.4346 16.808 41.4826 17.432 40.3786 17.88C39.2746 18.312 38.0666 18.528 36.7546 18.528C35.4266 18.528 34.2106 18.312 33.1066 17.88C32.0026 17.432 31.0426 16.808 30.2266 16.008C29.4266 15.208 28.8026 14.264 28.3546 13.176C27.9226 12.088 27.7066 10.896 27.7066 9.6ZM56.7056 11.928V8.808H65.2016C65.2816 10.152 65.1456 11.408 64.7936 12.576C64.4416 13.744 63.8976 14.776 63.1616 15.672C62.4256 16.568 61.5056 17.272 60.4016 17.784C59.2976 18.28 58.0336 18.528 56.6096 18.528C55.2656 18.528 54.0336 18.32 52.9136 17.904C51.7936 17.472 50.8256 16.864 50.0096 16.08C49.1936 15.28 48.5536 14.336 48.0896 13.248C47.6416 12.144 47.4176 10.928 47.4176 9.6C47.4176 8.272 47.6496 7.072 48.1136 6C48.5776 4.912 49.2336 3.984 50.0816 3.216C50.9296 2.448 51.9216 1.856 53.0576 1.44C54.1936 1.024 55.4256 0.816 56.7536 0.816C57.9376 0.816 59.0016 0.983999 59.9456 1.32C60.8896 1.656 61.7216 2.128 62.4416 2.736C63.1776 3.328 63.8096 4.016 64.3376 4.8L60.7376 6.672C60.3536 6 59.8336 5.448 59.1776 5.016C58.5376 4.568 57.7296 4.344 56.7536 4.344C55.8256 4.344 54.9696 4.552 54.1856 4.968C53.4176 5.384 52.8016 5.984 52.3376 6.768C51.8896 7.536 51.6656 8.48 51.6656 9.6C51.6656 10.704 51.8816 11.664 52.3136 12.48C52.7616 13.28 53.3616 13.904 54.1136 14.352C54.8816 14.784 55.7616 15 56.7536 15C57.3616 15 57.9136 14.928 58.4096 14.784C58.9056 14.624 59.3296 14.408 59.6816 14.136C60.0336 13.848 60.3296 13.52 60.5696 13.152C60.8256 12.768 61.0256 12.36 61.1696 11.928H56.7056Z" fill="white"/>
<path d="M67.9244 1.2H72.0524V18H67.9244V1.2ZM78.2999 4.68V1.2H85.8119V4.68H78.2999ZM78.2999 11.256V7.992H85.5719V11.256H78.2999ZM75.6119 1.2H79.4999V18H75.6119V1.2ZM97.583 1.2H102.239L96.359 11.16V18H92.231V11.184L86.351 1.2H91.007L94.295 7.512L97.583 1.2Z" fill="#9EF01A"/>
</svg>
