<svg width="43" height="43" viewBox="0 0 43 43" fill="none" xmlns="http://www.w3.org/2000/svg">
<rect width="43" height="43" rx="10" fill="#75757C"/>
<g clip-path="url(#clip0_26_392)">
<path d="M29.8333 31.5H13.1667C11.3333 31.5 9.83333 30 9.83333 28.1667V19C9.83333 17.1667 11.3333 15.6667 13.1667 15.6667H29.8333C31.6667 15.6667 33.1667 17.1667 33.1667 19V28.1667C33.1667 30 31.6667 31.5 29.8333 31.5Z" stroke="white" stroke-width="1.8" stroke-miterlimit="10" stroke-linecap="round" stroke-linejoin="round"/>
<path d="M27.5 15.6667H15.5L17 12.5833C17.3 11.9167 18 11.5 18.9 11.5H24.2C25 11.5 25.8 11.9167 26.1 12.5833L27.5 15.6667Z" stroke="white" stroke-width="1.8" stroke-miterlimit="10" stroke-linecap="round" stroke-linejoin="round"/>
<path d="M21.5 27.1667C23.7091 27.1667 25.5 25.3758 25.5 23.1667C25.5 20.9575 23.7091 19.1667 21.5 19.1667C19.2909 19.1667 17.5 20.9575 17.5 23.1667C17.5 25.3758 19.2909 27.1667 21.5 27.1667Z" fill="#9EF01A" stroke="white" stroke-width="1.8" stroke-miterlimit="10" stroke-linecap="round" stroke-linejoin="round"/>
</g>
<defs>
<clipPath id="clip0_26_392">
<rect width="25" height="25" fill="white" transform="translate(9 9)"/>
</clipPath>
</defs>
</svg>
