<svg width="313" height="33" viewBox="0 0 313 33" fill="none" xmlns="http://www.w3.org/2000/svg">
<path d="M6 15.08V12.12H10.52C11.2933 12.12 11.9467 12 12.48 11.76C13.04 11.52 13.4667 11.1867 13.76 10.76C14.0533 10.3067 14.2 9.76 14.2 9.12C14.2 8.16 13.88 7.44 13.24 6.96C12.6 6.48 11.6933 6.24 10.52 6.24H7.72V23.76H11.16C12.04 23.76 12.8267 23.6533 13.52 23.44C14.2133 23.2 14.76 22.8267 15.16 22.32C15.5867 21.7867 15.8 21.0667 15.8 20.16C15.8 19.5733 15.68 19.0667 15.44 18.64C15.2 18.2133 14.8667 17.8667 14.44 17.6C14.0133 17.3333 13.52 17.1467 12.96 17.04C12.4267 16.9067 11.8267 16.84 11.16 16.84H6V13.16H11.92C13.28 13.16 14.6 13.3067 15.88 13.6C17.16 13.8933 18.32 14.3733 19.36 15.04C20.4 15.68 21.2267 16.5067 21.84 17.52C22.48 18.5067 22.8 19.7067 22.8 21.12C22.8 22.9867 22.3467 24.4933 21.44 25.64C20.56 26.7867 19.3067 27.64 17.68 28.2C16.0533 28.7333 14.1333 29 11.92 29H0.96V0.999998H11.24C13.1867 0.999998 14.8933 1.26667 16.36 1.8C17.8533 2.30667 19.0267 3.09333 19.88 4.16C20.76 5.2 21.2 6.52 21.2 8.12C21.2 9.58667 20.76 10.84 19.88 11.88C19.0267 12.92 17.8533 13.72 16.36 14.28C14.8933 14.8133 13.1867 15.08 11.24 15.08H6ZM38.7225 10.6H45.4425L38.4025 19.56L45.8425 29H39.1225L35.2825 23.64L31.5225 29H24.5625L32.1225 19.56L24.9625 10.6H31.9225L35.2825 15.44L38.7225 10.6ZM46.5456 19.8C46.5456 17.8533 46.999 16.16 47.9056 14.72C48.8123 13.28 50.0656 12.16 51.6656 11.36C53.2656 10.56 55.0656 10.16 57.0656 10.16C59.0656 10.16 60.8523 10.56 62.4256 11.36C64.0256 12.16 65.279 13.28 66.1856 14.72C67.119 16.16 67.5856 17.8533 67.5856 19.8C67.5856 21.72 67.119 23.4 66.1856 24.84C65.279 26.28 64.0256 27.4 62.4256 28.2C60.8523 29 59.0656 29.4 57.0656 29.4C55.0656 29.4 53.2656 29 51.6656 28.2C50.0656 27.4 48.8123 26.28 47.9056 24.84C46.999 23.4 46.5456 21.72 46.5456 19.8ZM52.7456 19.8C52.7456 20.76 52.9456 21.5867 53.3456 22.28C53.7456 22.9467 54.2656 23.4667 54.9056 23.84C55.5456 24.2133 56.2656 24.4 57.0656 24.4C57.839 24.4 58.5456 24.2133 59.1856 23.84C59.8523 23.4667 60.3723 22.9467 60.7456 22.28C61.1456 21.5867 61.3456 20.76 61.3456 19.8C61.3456 18.84 61.1456 18.0133 60.7456 17.32C60.3723 16.6267 59.8523 16.0933 59.1856 15.72C58.5456 15.3467 57.839 15.16 57.0656 15.16C56.2656 15.16 55.5456 15.3467 54.9056 15.72C54.2656 16.0933 53.7456 16.6267 53.3456 17.32C52.9456 18.0133 52.7456 18.84 52.7456 19.8ZM80.8672 17.88L76.4672 27.8L70.6272 26.56L80.8672 9.2L91.1072 26.56L85.2672 27.8L80.8672 17.88ZM87.5872 29H74.3472V32.6H68.4672V24.24H93.2672V32.6H87.5872V29ZM113.543 19.4H120.103C121.383 19.4 122.529 19.5333 123.543 19.8C124.556 20.0667 125.356 20.5333 125.943 21.2C126.529 21.8667 126.823 22.8 126.823 24C126.823 25.3867 126.356 26.5733 125.423 27.56C124.516 28.52 123.009 29 120.903 29H113.543V25.2H118.863C119.716 25.2 120.303 25.0133 120.623 24.64C120.969 24.24 121.143 23.8133 121.143 23.36C121.143 23.12 121.103 22.8933 121.023 22.68C120.943 22.4667 120.809 22.28 120.623 22.12C120.463 21.96 120.236 21.8267 119.943 21.72C119.649 21.6133 119.289 21.56 118.863 21.56H113.543V19.4ZM113.543 20.2V17.84H118.463C118.783 17.84 119.049 17.8 119.263 17.72C119.503 17.6133 119.703 17.48 119.863 17.32C120.023 17.16 120.143 16.9733 120.223 16.76C120.303 16.5467 120.343 16.3333 120.343 16.12C120.343 15.64 120.183 15.24 119.863 14.92C119.543 14.5733 119.076 14.4 118.463 14.4H113.543V10.6H119.703C120.849 10.6 121.889 10.7733 122.823 11.12C123.783 11.44 124.556 11.9733 125.143 12.72C125.729 13.44 126.023 14.4 126.023 15.6C126.023 16.64 125.729 17.5067 125.143 18.2C124.556 18.8667 123.783 19.3733 122.823 19.72C121.889 20.04 120.849 20.2 119.703 20.2H113.543ZM110.063 10.6H115.863V29H110.063V10.6ZM148.031 15.08V12.12H152.551C153.325 12.12 153.978 12 154.511 11.76C155.071 11.52 155.498 11.1867 155.791 10.76C156.085 10.3067 156.231 9.76 156.231 9.12C156.231 8.16 155.911 7.44 155.271 6.96C154.631 6.48 153.725 6.24 152.551 6.24H149.751V23.76H153.191C154.071 23.76 154.858 23.6533 155.551 23.44C156.245 23.2 156.791 22.8267 157.191 22.32C157.618 21.7867 157.831 21.0667 157.831 20.16C157.831 19.5733 157.711 19.0667 157.471 18.64C157.231 18.2133 156.898 17.8667 156.471 17.6C156.045 17.3333 155.551 17.1467 154.991 17.04C154.458 16.9067 153.858 16.84 153.191 16.84H148.031V13.16H153.951C155.311 13.16 156.631 13.3067 157.911 13.6C159.191 13.8933 160.351 14.3733 161.391 15.04C162.431 15.68 163.258 16.5067 163.871 17.52C164.511 18.5067 164.831 19.7067 164.831 21.12C164.831 22.9867 164.378 24.4933 163.471 25.64C162.591 26.7867 161.338 27.64 159.711 28.2C158.085 28.7333 156.165 29 153.951 29H142.991V0.999998H153.271C155.218 0.999998 156.925 1.26667 158.391 1.8C159.885 2.30667 161.058 3.09333 161.911 4.16C162.791 5.2 163.231 6.52 163.231 8.12C163.231 9.58667 162.791 10.84 161.911 11.88C161.058 12.92 159.885 13.72 158.391 14.28C156.925 14.8133 155.218 15.08 153.271 15.08H148.031ZM169.554 0.999998H176.314V23.2H187.554V29H169.554V0.999998ZM195.036 15C195.036 16.6533 195.356 18.12 195.996 19.4C196.662 20.6533 197.582 21.64 198.756 22.36C199.956 23.08 201.356 23.44 202.956 23.44C204.529 23.44 205.902 23.08 207.076 22.36C208.276 21.64 209.196 20.6533 209.836 19.4C210.502 18.12 210.836 16.6533 210.836 15C210.836 13.3467 210.516 11.8933 209.876 10.64C209.236 9.36 208.329 8.36 207.156 7.64C205.982 6.92 204.582 6.56 202.956 6.56C201.356 6.56 199.956 6.92 198.756 7.64C197.582 8.36 196.662 9.36 195.996 10.64C195.356 11.8933 195.036 13.3467 195.036 15ZM187.876 15C187.876 12.84 188.249 10.8667 188.996 9.08C189.769 7.29333 190.836 5.74667 192.196 4.44C193.556 3.13333 195.156 2.13333 196.996 1.44C198.836 0.719999 200.822 0.359999 202.956 0.359999C205.116 0.359999 207.102 0.719999 208.916 1.44C210.756 2.13333 212.356 3.13333 213.716 4.44C215.076 5.74667 216.129 7.29333 216.876 9.08C217.622 10.8667 217.996 12.84 217.996 15C217.996 17.16 217.622 19.1467 216.876 20.96C216.156 22.7733 215.116 24.3467 213.756 25.68C212.422 27.0133 210.836 28.0533 208.996 28.8C207.156 29.52 205.142 29.88 202.956 29.88C200.742 29.88 198.716 29.52 196.876 28.8C195.036 28.0533 193.436 27.0133 192.076 25.68C190.742 24.3467 189.702 22.7733 188.956 20.96C188.236 19.1467 187.876 17.16 187.876 15ZM236.207 18.88V13.68H250.367C250.501 15.92 250.274 18.0133 249.687 19.96C249.101 21.9067 248.194 23.6267 246.967 25.12C245.741 26.6133 244.207 27.7867 242.367 28.64C240.527 29.4667 238.421 29.88 236.047 29.88C233.807 29.88 231.754 29.5333 229.887 28.84C228.021 28.12 226.407 27.1067 225.047 25.8C223.687 24.4667 222.621 22.8933 221.847 21.08C221.101 19.24 220.727 17.2133 220.727 15C220.727 12.7867 221.114 10.7867 221.887 9C222.661 7.18667 223.754 5.64 225.167 4.36C226.581 3.08 228.234 2.09333 230.127 1.4C232.021 0.706665 234.074 0.359999 236.287 0.359999C238.261 0.359999 240.034 0.639999 241.607 1.2C243.181 1.76 244.567 2.54667 245.767 3.56C246.994 4.54667 248.047 5.69333 248.927 7L242.927 10.12C242.287 9 241.421 8.08 240.327 7.36C239.261 6.61333 237.914 6.24 236.287 6.24C234.741 6.24 233.314 6.58667 232.007 7.28C230.727 7.97333 229.701 8.97333 228.927 10.28C228.181 11.56 227.807 13.1333 227.807 15C227.807 16.84 228.167 18.44 228.887 19.8C229.634 21.1333 230.634 22.1733 231.887 22.92C233.167 23.64 234.634 24 236.287 24C237.301 24 238.221 23.88 239.047 23.64C239.874 23.3733 240.581 23.0133 241.167 22.56C241.754 22.08 242.247 21.5333 242.647 20.92C243.074 20.28 243.407 19.6 243.647 18.88H236.207Z" fill="white"/>
<path d="M254.905 0.999998H261.785V29H254.905V0.999998ZM272.198 6.8V0.999998H284.718V6.8H272.198ZM272.198 17.76V12.32H284.318V17.76H272.198ZM267.718 0.999998H274.198V29H267.718V0.999998ZM304.336 0.999998H312.096L302.296 17.6V29H295.416V17.64L285.616 0.999998H293.376L298.856 11.52L304.336 0.999998Z" fill="#9EF01A"/>
</svg>
