<svg width="30" height="30" viewBox="0 0 30 30" fill="none" xmlns="http://www.w3.org/2000/svg">
<g clip-path="url(#clip0_3_15)">
<path d="M25.6066 4.39336C22.7735 1.56029 19.0066 0 15 0C10.9934 0 7.22654 1.56029 4.39336 4.39336C1.56029 7.22654 0 10.9934 0 15C0 19.0066 1.56023 22.7735 4.39336 25.6066C7.22654 28.4397 10.9934 30 15 30C19.0066 30 22.7735 28.4397 25.6066 25.6066C28.4397 22.7735 30 19.0066 30 15C30 10.9934 28.4397 7.22654 25.6066 4.39336ZM6.90334 25.4709C8.05664 22.0134 11.3086 19.6446 15 19.6446C18.6914 19.6446 21.9434 22.0135 23.0966 25.471C20.8564 27.2071 18.047 28.2422 15 28.2422C11.953 28.2422 9.1435 27.2071 6.90334 25.4709ZM24.5013 24.2138C22.9235 20.4274 19.1973 17.8867 15 17.8867C10.8026 17.8867 7.07648 20.4274 5.49867 24.2137C3.1848 21.8283 1.75781 18.5779 1.75781 15C1.75781 7.69822 7.69822 1.75781 15 1.75781C22.3018 1.75781 28.2422 7.69822 28.2422 15C28.2422 18.5779 26.8152 21.8284 24.5013 24.2138Z" fill="#9EF01A"/>
<path d="M15 4.70706C11.9199 4.70706 9.41406 7.21294 9.41406 10.293C9.41406 13.373 11.9199 15.8789 15 15.8789C18.0801 15.8789 20.586 13.373 20.586 10.293C20.586 7.21294 18.0801 4.70706 15 4.70706ZM15 14.1211C12.8891 14.1211 11.1719 12.4038 11.1719 10.293C11.1719 8.1822 12.8891 6.46487 15 6.46487C17.1108 6.46487 18.8281 8.1822 18.8281 10.293C18.8281 12.4038 17.1108 14.1211 15 14.1211Z" fill="#9EF01A"/>
<circle cx="15" cy="15" r="14.1" stroke="white" stroke-width="1.8"/>
</g>
<defs>
<clipPath id="clip0_3_15">
<rect width="30" height="30" fill="white"/>
</clipPath>
</defs>
</svg>
